<mxfile host="app.diagrams.net" modified="2023-09-28T07:22:12.652Z" agent="Mozilla/5.0 (Windows NT 10.0; Win64; x64) AppleWebKit/537.36 (KHTML, like Gecko) Chrome/117.0.0.0 Safari/537.36 Edg/117.0.2045.43" etag="qJK9xuGmzYZltcx70FgT" version="21.8.2" type="github">
  <diagram name="第 1 页" id="c5xBm23bdEgAW4D4otEW">
    <mxGraphModel dx="2340" dy="3639" grid="1" gridSize="10" guides="1" tooltips="1" connect="1" arrows="1" fold="1" page="1" pageScale="1" pageWidth="827" pageHeight="1169" math="0" shadow="0">
      <root>
        <mxCell id="0" />
        <mxCell id="1" parent="0" />
        <mxCell id="jKxlC3RS6DoU-eSakAqV-1" style="edgeStyle=orthogonalEdgeStyle;rounded=0;orthogonalLoop=1;jettySize=auto;html=1;entryX=0.5;entryY=0;entryDx=0;entryDy=0;" parent="1" source="jKxlC3RS6DoU-eSakAqV-2" target="jKxlC3RS6DoU-eSakAqV-4" edge="1">
          <mxGeometry relative="1" as="geometry" />
        </mxCell>
        <mxCell id="jKxlC3RS6DoU-eSakAqV-2" value="订单ID、续时长结束时间" style="rounded=1;whiteSpace=wrap;html=1;" parent="1" diagramCategory="general" diagramName="RoundedRectangle" vertex="1">
          <mxGeometry x="337" y="-2307" width="180" height="60" as="geometry" />
        </mxCell>
        <mxCell id="jKxlC3RS6DoU-eSakAqV-3" style="edgeStyle=orthogonalEdgeStyle;rounded=0;orthogonalLoop=1;jettySize=auto;html=1;" parent="1" source="jKxlC3RS6DoU-eSakAqV-4" target="jKxlC3RS6DoU-eSakAqV-9" edge="1">
          <mxGeometry relative="1" as="geometry" />
        </mxCell>
        <mxCell id="jKxlC3RS6DoU-eSakAqV-4" value="查询订单信息" style="rounded=0;whiteSpace=wrap;html=1;" parent="1" diagramCategory="general" diagramName="Rectangle" vertex="1">
          <mxGeometry x="337" y="-2182" width="180" height="60" as="geometry" />
        </mxCell>
        <mxCell id="jKxlC3RS6DoU-eSakAqV-5" value="&lt;span style&gt;&lt;font style=&quot;font-size: 12px;&quot;&gt;原订单结束时间 - 当前时间 ≤ 可提前多久续时长分钟&lt;/font&gt;&lt;br /&gt;&lt;/span&gt;" style="shape=note;whiteSpace=wrap;html=1;size=14;verticalAlign=middle;align=left;spacingTop=-6;fontStyle=1" parent="1" diagramCategory="uml" diagramName="Note" vertex="1">
          <mxGeometry y="-1635.5" width="300" height="35" as="geometry" />
        </mxCell>
        <mxCell id="jKxlC3RS6DoU-eSakAqV-6" style="edgeStyle=orthogonalEdgeStyle;rounded=0;orthogonalLoop=1;jettySize=auto;html=1;" parent="1" source="jKxlC3RS6DoU-eSakAqV-9" target="jKxlC3RS6DoU-eSakAqV-29" edge="1">
          <mxGeometry relative="1" as="geometry">
            <Array as="points">
              <mxPoint x="640" y="-2022" />
              <mxPoint x="640" y="-2022" />
            </Array>
          </mxGeometry>
        </mxCell>
        <mxCell id="jKxlC3RS6DoU-eSakAqV-7" value="否" style="edgeLabel;html=1;align=center;verticalAlign=middle;resizable=0;points=[];" parent="jKxlC3RS6DoU-eSakAqV-6" connectable="0" vertex="1">
          <mxGeometry x="-0.0338" y="2" relative="1" as="geometry">
            <mxPoint x="3.76" y="-10.03" as="offset" />
          </mxGeometry>
        </mxCell>
        <mxCell id="jKxlC3RS6DoU-eSakAqV-8" style="edgeStyle=orthogonalEdgeStyle;rounded=0;orthogonalLoop=1;jettySize=auto;html=1;entryX=0.5;entryY=0;entryDx=0;entryDy=0;" parent="1" source="jKxlC3RS6DoU-eSakAqV-9" target="jKxlC3RS6DoU-eSakAqV-21" edge="1">
          <mxGeometry relative="1" as="geometry" />
        </mxCell>
        <mxCell id="jKxlC3RS6DoU-eSakAqV-9" value="续时长结束时间是否&lt;br /&gt;大于订单学习结束时间" style="rhombus;whiteSpace=wrap;html=1;" parent="1" diagramCategory="general" diagramName="Diamond" vertex="1">
          <mxGeometry x="337" y="-2052" width="180" height="60" as="geometry" />
        </mxCell>
        <mxCell id="jKxlC3RS6DoU-eSakAqV-11" value="" style="edgeStyle=orthogonalEdgeStyle;rounded=0;orthogonalLoop=1;jettySize=auto;html=1;" parent="1" source="jKxlC3RS6DoU-eSakAqV-12" target="jKxlC3RS6DoU-eSakAqV-15" edge="1">
          <mxGeometry relative="1" as="geometry" />
        </mxCell>
        <mxCell id="jKxlC3RS6DoU-eSakAqV-55" style="edgeStyle=orthogonalEdgeStyle;rounded=0;orthogonalLoop=1;jettySize=auto;html=1;" parent="1" source="jKxlC3RS6DoU-eSakAqV-12" target="jKxlC3RS6DoU-eSakAqV-29" edge="1">
          <mxGeometry relative="1" as="geometry">
            <Array as="points">
              <mxPoint x="680" y="-1262" />
              <mxPoint x="680" y="-1262" />
            </Array>
          </mxGeometry>
        </mxCell>
        <mxCell id="jKxlC3RS6DoU-eSakAqV-12" value="用户是否黑名单和爽约" style="rhombus;whiteSpace=wrap;html=1;" parent="1" diagramCategory="general" diagramName="Diamond" vertex="1">
          <mxGeometry x="337" y="-1292" width="180" height="60" as="geometry" />
        </mxCell>
        <mxCell id="jKxlC3RS6DoU-eSakAqV-13" style="edgeStyle=orthogonalEdgeStyle;rounded=0;orthogonalLoop=1;jettySize=auto;html=1;" parent="1" source="jKxlC3RS6DoU-eSakAqV-15" target="jKxlC3RS6DoU-eSakAqV-29" edge="1">
          <mxGeometry relative="1" as="geometry">
            <Array as="points">
              <mxPoint x="790" y="-1122" />
              <mxPoint x="790" y="-1122" />
            </Array>
          </mxGeometry>
        </mxCell>
        <mxCell id="jKxlC3RS6DoU-eSakAqV-14" style="edgeStyle=orthogonalEdgeStyle;rounded=0;orthogonalLoop=1;jettySize=auto;html=1;" parent="1" source="jKxlC3RS6DoU-eSakAqV-15" target="jKxlC3RS6DoU-eSakAqV-43" edge="1">
          <mxGeometry relative="1" as="geometry" />
        </mxCell>
        <mxCell id="jKxlC3RS6DoU-eSakAqV-15" value="续时长的时间座位&lt;br /&gt;是否被占用" style="rhombus;whiteSpace=wrap;html=1;" parent="1" diagramCategory="general" diagramName="Diamond" vertex="1">
          <mxGeometry x="337" y="-1152" width="180" height="60" as="geometry" />
        </mxCell>
        <mxCell id="jKxlC3RS6DoU-eSakAqV-16" value="是" style="text;html=1;align=center;verticalAlign=middle;resizable=0;points=[];autosize=1;" parent="1" vertex="1">
          <mxGeometry x="417" y="-1908" width="40" height="20" as="geometry" />
        </mxCell>
        <mxCell id="jKxlC3RS6DoU-eSakAqV-17" style="edgeStyle=orthogonalEdgeStyle;rounded=0;orthogonalLoop=1;jettySize=auto;html=1;" parent="1" source="jKxlC3RS6DoU-eSakAqV-18" target="jKxlC3RS6DoU-eSakAqV-34" edge="1">
          <mxGeometry relative="1" as="geometry" />
        </mxCell>
        <mxCell id="jKxlC3RS6DoU-eSakAqV-18" value="&lt;div style&gt;&lt;span style=&quot;background-color: initial;&quot;&gt;查询门店信息&lt;/span&gt;&lt;/div&gt;" style="rounded=0;whiteSpace=wrap;html=1;align=center;" parent="1" diagramCategory="general" diagramName="Rectangle" vertex="1">
          <mxGeometry x="337" y="-1535" width="180" height="60" as="geometry" />
        </mxCell>
        <mxCell id="jKxlC3RS6DoU-eSakAqV-20" value="" style="edgeStyle=orthogonalEdgeStyle;rounded=0;orthogonalLoop=1;jettySize=auto;html=1;" parent="1" source="jKxlC3RS6DoU-eSakAqV-21" target="jKxlC3RS6DoU-eSakAqV-24" edge="1">
          <mxGeometry relative="1" as="geometry" />
        </mxCell>
        <mxCell id="jKxlC3RS6DoU-eSakAqV-51" style="edgeStyle=orthogonalEdgeStyle;rounded=0;orthogonalLoop=1;jettySize=auto;html=1;" parent="1" source="jKxlC3RS6DoU-eSakAqV-21" target="jKxlC3RS6DoU-eSakAqV-29" edge="1">
          <mxGeometry relative="1" as="geometry">
            <Array as="points">
              <mxPoint x="680" y="-1898" />
              <mxPoint x="680" y="-1898" />
            </Array>
          </mxGeometry>
        </mxCell>
        <mxCell id="jKxlC3RS6DoU-eSakAqV-21" value="订单是否进行中" style="rhombus;whiteSpace=wrap;html=1;" parent="1" diagramCategory="general" diagramName="Diamond" vertex="1">
          <mxGeometry x="337" y="-1928" width="180" height="60" as="geometry" />
        </mxCell>
        <mxCell id="jKxlC3RS6DoU-eSakAqV-23" value="" style="edgeStyle=orthogonalEdgeStyle;rounded=0;orthogonalLoop=1;jettySize=auto;html=1;" parent="1" source="jKxlC3RS6DoU-eSakAqV-24" target="jKxlC3RS6DoU-eSakAqV-27" edge="1">
          <mxGeometry relative="1" as="geometry" />
        </mxCell>
        <mxCell id="jKxlC3RS6DoU-eSakAqV-52" style="edgeStyle=orthogonalEdgeStyle;rounded=0;orthogonalLoop=1;jettySize=auto;html=1;" parent="1" source="jKxlC3RS6DoU-eSakAqV-24" target="jKxlC3RS6DoU-eSakAqV-29" edge="1">
          <mxGeometry relative="1" as="geometry">
            <Array as="points">
              <mxPoint x="710" y="-1758" />
              <mxPoint x="710" y="-1758" />
            </Array>
          </mxGeometry>
        </mxCell>
        <mxCell id="jKxlC3RS6DoU-eSakAqV-24" value="是否为锁座预约" style="rhombus;whiteSpace=wrap;html=1;" parent="1" diagramCategory="general" diagramName="Diamond" vertex="1">
          <mxGeometry x="337" y="-1788" width="180" height="60" as="geometry" />
        </mxCell>
        <mxCell id="jKxlC3RS6DoU-eSakAqV-26" style="edgeStyle=orthogonalEdgeStyle;rounded=0;orthogonalLoop=1;jettySize=auto;html=1;" parent="1" source="jKxlC3RS6DoU-eSakAqV-27" target="jKxlC3RS6DoU-eSakAqV-18" edge="1">
          <mxGeometry relative="1" as="geometry" />
        </mxCell>
        <mxCell id="jKxlC3RS6DoU-eSakAqV-53" style="edgeStyle=orthogonalEdgeStyle;rounded=0;orthogonalLoop=1;jettySize=auto;html=1;" parent="1" source="jKxlC3RS6DoU-eSakAqV-27" target="jKxlC3RS6DoU-eSakAqV-29" edge="1">
          <mxGeometry relative="1" as="geometry">
            <Array as="points">
              <mxPoint x="690" y="-1618" />
              <mxPoint x="690" y="-1618" />
            </Array>
          </mxGeometry>
        </mxCell>
        <mxCell id="jKxlC3RS6DoU-eSakAqV-27" value="是否允许续时长" style="rhombus;whiteSpace=wrap;html=1;" parent="1" diagramCategory="general" diagramName="Diamond" vertex="1">
          <mxGeometry x="337" y="-1648" width="180" height="60" as="geometry" />
        </mxCell>
        <mxCell id="jKxlC3RS6DoU-eSakAqV-28" value="是" style="text;html=1;align=center;verticalAlign=middle;resizable=0;points=[];autosize=1;" parent="1" vertex="1">
          <mxGeometry x="417" y="-1972" width="40" height="20" as="geometry" />
        </mxCell>
        <mxCell id="jKxlC3RS6DoU-eSakAqV-29" value="结&lt;br /&gt;&lt;br /&gt;&lt;br /&gt;&lt;br /&gt;束" style="rounded=0;whiteSpace=wrap;html=1;" parent="1" diagramCategory="general" diagramName="Rectangle" vertex="1">
          <mxGeometry x="740" y="-2307" width="54" height="1817" as="geometry" />
        </mxCell>
        <mxCell id="jKxlC3RS6DoU-eSakAqV-30" value="不是" style="text;html=1;align=center;verticalAlign=middle;resizable=0;points=[];autosize=1;" parent="1" vertex="1">
          <mxGeometry x="580" y="-1917" width="40" height="20" as="geometry" />
        </mxCell>
        <mxCell id="jKxlC3RS6DoU-eSakAqV-31" value="是" style="text;html=1;align=center;verticalAlign=middle;resizable=0;points=[];autosize=1;" parent="1" vertex="1">
          <mxGeometry x="580" y="-1782" width="40" height="20" as="geometry" />
        </mxCell>
        <mxCell id="jKxlC3RS6DoU-eSakAqV-33" style="edgeStyle=orthogonalEdgeStyle;rounded=0;orthogonalLoop=1;jettySize=auto;html=1;" parent="1" source="jKxlC3RS6DoU-eSakAqV-34" target="jKxlC3RS6DoU-eSakAqV-12" edge="1">
          <mxGeometry relative="1" as="geometry" />
        </mxCell>
        <mxCell id="jKxlC3RS6DoU-eSakAqV-56" style="edgeStyle=orthogonalEdgeStyle;rounded=0;orthogonalLoop=1;jettySize=auto;html=1;" parent="1" source="jKxlC3RS6DoU-eSakAqV-34" target="jKxlC3RS6DoU-eSakAqV-29" edge="1">
          <mxGeometry relative="1" as="geometry">
            <Array as="points">
              <mxPoint x="680" y="-1380" />
              <mxPoint x="680" y="-1380" />
            </Array>
          </mxGeometry>
        </mxCell>
        <mxCell id="jKxlC3RS6DoU-eSakAqV-34" value="是否超出营业结束时间" style="rhombus;whiteSpace=wrap;html=1;" parent="1" diagramCategory="general" diagramName="Diamond" vertex="1">
          <mxGeometry x="337" y="-1410" width="180" height="60" as="geometry" />
        </mxCell>
        <mxCell id="jKxlC3RS6DoU-eSakAqV-35" value="是" style="text;html=1;align=center;verticalAlign=middle;resizable=0;points=[];autosize=1;" parent="1" vertex="1">
          <mxGeometry x="590" y="-1400" width="40" height="20" as="geometry" />
        </mxCell>
        <mxCell id="jKxlC3RS6DoU-eSakAqV-36" value="否" style="text;html=1;align=center;verticalAlign=middle;resizable=0;points=[];autosize=1;" parent="1" vertex="1">
          <mxGeometry x="430" y="-1698.5" width="40" height="20" as="geometry" />
        </mxCell>
        <mxCell id="jKxlC3RS6DoU-eSakAqV-37" value="是" style="text;html=1;align=center;verticalAlign=middle;resizable=0;points=[];autosize=1;" parent="1" vertex="1">
          <mxGeometry x="430" y="-1842" width="40" height="20" as="geometry" />
        </mxCell>
        <mxCell id="jKxlC3RS6DoU-eSakAqV-38" value="不允许" style="text;html=1;align=center;verticalAlign=middle;resizable=0;points=[];autosize=1;" parent="1" vertex="1">
          <mxGeometry x="580" y="-1648" width="40" height="20" as="geometry" />
        </mxCell>
        <mxCell id="jKxlC3RS6DoU-eSakAqV-39" value="允许" style="text;html=1;align=center;verticalAlign=middle;resizable=0;points=[];autosize=1;" parent="1" vertex="1">
          <mxGeometry x="438" y="-1569" width="40" height="20" as="geometry" />
        </mxCell>
        <mxCell id="jKxlC3RS6DoU-eSakAqV-40" value="否" style="text;html=1;align=center;verticalAlign=middle;resizable=0;points=[];autosize=1;" parent="1" vertex="1">
          <mxGeometry x="437" y="-1327" width="40" height="20" as="geometry" />
        </mxCell>
        <mxCell id="jKxlC3RS6DoU-eSakAqV-41" value="是" style="text;html=1;align=center;verticalAlign=middle;resizable=0;points=[];autosize=1;" parent="1" vertex="1">
          <mxGeometry x="580" y="-1280" width="40" height="20" as="geometry" />
        </mxCell>
        <mxCell id="jKxlC3RS6DoU-eSakAqV-42" style="edgeStyle=orthogonalEdgeStyle;rounded=0;orthogonalLoop=1;jettySize=auto;html=1;" parent="1" source="jKxlC3RS6DoU-eSakAqV-43" target="jKxlC3RS6DoU-eSakAqV-47" edge="1">
          <mxGeometry relative="1" as="geometry" />
        </mxCell>
        <mxCell id="jKxlC3RS6DoU-eSakAqV-43" value="&lt;div style&gt;&lt;span style=&quot;background-color: initial;&quot;&gt;查询可用套餐列表&lt;/span&gt;&lt;/div&gt;" style="rounded=0;whiteSpace=wrap;html=1;align=center;" parent="1" diagramCategory="general" diagramName="Rectangle" vertex="1">
          <mxGeometry x="337" y="-1022" width="180" height="60" as="geometry" />
        </mxCell>
        <mxCell id="jKxlC3RS6DoU-eSakAqV-44" value="是" style="text;html=1;align=center;verticalAlign=middle;resizable=0;points=[];autosize=1;" parent="1" vertex="1">
          <mxGeometry x="580" y="-1144.5" width="40" height="20" as="geometry" />
        </mxCell>
        <mxCell id="jKxlC3RS6DoU-eSakAqV-46" style="edgeStyle=orthogonalEdgeStyle;rounded=0;orthogonalLoop=1;jettySize=auto;html=1;" parent="1" source="jKxlC3RS6DoU-eSakAqV-47" target="jKxlC3RS6DoU-eSakAqV-49" edge="1">
          <mxGeometry relative="1" as="geometry" />
        </mxCell>
        <mxCell id="jKxlC3RS6DoU-eSakAqV-54" style="edgeStyle=orthogonalEdgeStyle;rounded=0;orthogonalLoop=1;jettySize=auto;html=1;" parent="1" source="jKxlC3RS6DoU-eSakAqV-47" target="jKxlC3RS6DoU-eSakAqV-29" edge="1">
          <mxGeometry relative="1" as="geometry">
            <Array as="points">
              <mxPoint x="690" y="-862" />
              <mxPoint x="690" y="-862" />
            </Array>
          </mxGeometry>
        </mxCell>
        <mxCell id="jKxlC3RS6DoU-eSakAqV-47" value="套餐是否可用" style="rhombus;whiteSpace=wrap;html=1;" parent="1" diagramCategory="general" diagramName="Diamond" vertex="1">
          <mxGeometry x="337" y="-892" width="180" height="60" as="geometry" />
        </mxCell>
        <mxCell id="jKxlC3RS6DoU-eSakAqV-48" value="否" style="text;html=1;align=center;verticalAlign=middle;resizable=0;points=[];autosize=1;" parent="1" vertex="1">
          <mxGeometry x="590" y="-892" width="40" height="20" as="geometry" />
        </mxCell>
        <mxCell id="IgDK2Nk9Q8-9xdo9k46y-2" style="edgeStyle=orthogonalEdgeStyle;rounded=0;orthogonalLoop=1;jettySize=auto;html=1;" edge="1" parent="1" source="jKxlC3RS6DoU-eSakAqV-49" target="IgDK2Nk9Q8-9xdo9k46y-1">
          <mxGeometry relative="1" as="geometry" />
        </mxCell>
        <mxCell id="jKxlC3RS6DoU-eSakAqV-49" value="&lt;div style&gt;&lt;span style=&quot;background-color: initial;&quot;&gt;创建续时长订单&lt;/span&gt;&lt;/div&gt;" style="rounded=0;whiteSpace=wrap;html=1;align=center;" parent="1" diagramCategory="general" diagramName="Rectangle" vertex="1">
          <mxGeometry x="337" y="-762" width="180" height="60" as="geometry" />
        </mxCell>
        <mxCell id="jKxlC3RS6DoU-eSakAqV-50" value="跟主订单创建保持一致，不校验套餐是否可用，允许续时长订单创建" style="rounded=0;whiteSpace=wrap;html=1;align=left;" parent="1" vertex="1" diagramName="Rectangle" diagramCategory="general">
          <mxGeometry x="160" y="-1022" width="150" height="230" as="geometry" />
        </mxCell>
        <mxCell id="IgDK2Nk9Q8-9xdo9k46y-3" style="edgeStyle=orthogonalEdgeStyle;rounded=0;orthogonalLoop=1;jettySize=auto;html=1;" edge="1" parent="1" source="IgDK2Nk9Q8-9xdo9k46y-1" target="jKxlC3RS6DoU-eSakAqV-29">
          <mxGeometry relative="1" as="geometry">
            <Array as="points">
              <mxPoint x="680" y="-570" />
              <mxPoint x="680" y="-570" />
            </Array>
          </mxGeometry>
        </mxCell>
        <mxCell id="IgDK2Nk9Q8-9xdo9k46y-1" value="&lt;div style&gt;&lt;span style=&quot;background-color: initial;&quot;&gt;订单过期定时任务&lt;/span&gt;&lt;/div&gt;" style="rounded=0;whiteSpace=wrap;html=1;align=center;" diagramCategory="general" diagramName="Rectangle" vertex="1" parent="1">
          <mxGeometry x="337" y="-600" width="180" height="60" as="geometry" />
        </mxCell>
      </root>
    </mxGraphModel>
  </diagram>
</mxfile>
